<svg width="158" height="286" viewBox="0 0 158 286" fill="none" xmlns="http://www.w3.org/2000/svg">
<g filter="url(#filter0_d_861_11008)">
<path fill-rule="evenodd" clip-rule="evenodd" d="M99.1818 105.461C99.0622 105.009 98.86 104.519 98.7321 104.374C98.6042 104.228 98.646 104.041 98.8247 103.957C99.2402 103.763 99.2364 102.896 98.8198 102.903C98.6286 102.906 98.6459 102.675 98.8636 102.315C99.1445 101.852 99.1213 101.59 98.7569 101.11C98.4073 100.648 98.3874 100.471 98.676 100.396C98.9691 100.319 98.9711 100.158 98.6836 99.7155C98.4265 99.3195 98.4118 99.0837 98.638 98.9716C98.8201 98.8815 98.9835 98.3656 99.001 97.8251C99.0261 97.0525 98.8796 96.7674 98.3146 96.4913C97.9197 96.2984 97.7477 96.1378 97.9322 96.1349C98.3024 96.129 98.4642 93.4207 98.1183 93.027C98.0009 92.8935 97.9281 92.1059 97.9562 91.2766C97.9996 89.9967 97.8981 89.6873 97.2842 89.2279C96.7224 88.8077 96.642 88.6135 96.9245 88.3583C97.4483 87.8853 97.2534 86.0288 96.6469 85.7155C96.2394 85.5051 96.2202 85.389 96.5434 85.0967C96.8278 84.8401 96.8377 84.7136 96.5782 84.6553C96.3481 84.6033 96.2012 83.8475 96.1771 82.5925C96.1563 81.5033 95.9024 80.0368 95.6128 79.334C95.3231 78.6312 95.1178 77.7084 95.1561 77.2833C95.1948 76.8582 95.0742 76.3817 94.8888 76.2244C94.7031 76.0672 94.5429 75.733 94.5328 75.4817C94.4941 74.5268 94.0494 73.1452 93.6379 72.7013C93.4024 72.4474 93.2116 71.808 93.2142 71.2808C93.2164 70.7535 93.068 70.1244 92.8841 69.8829C92.7 69.6412 92.4384 68.9457 92.3025 68.3368C92.1666 67.7279 91.9272 67.2319 91.7702 67.2344C91.6134 67.2369 91.482 67.0519 91.4783 66.8235C91.4747 66.5948 91.2509 66.1859 90.9809 65.9149C90.7109 65.6437 90.575 65.2548 90.679 65.0507C90.7827 64.8465 90.5613 64.2665 90.1868 63.762C89.7614 63.1888 89.6275 62.7875 89.8298 62.6928C90.0267 62.6006 90.0379 62.4367 89.8579 62.2745C89.6952 62.1276 89.0922 61.1365 88.5176 60.0718C87.9433 59.007 87.188 57.881 86.8398 57.5695C86.4913 57.2581 86.2839 56.8508 86.3785 56.6645C86.4962 56.4328 86.3243 56.3296 85.833 56.3373C85.296 56.3459 85.1976 56.2738 85.443 56.0512C85.6713 55.8441 85.6299 55.472 85.3067 54.8256C85.0516 54.3152 84.8401 53.8712 84.837 53.8392C84.8339 53.8072 84.5051 53.7844 84.1069 53.7888C83.5837 53.7945 83.5017 53.7395 83.8113 53.591C84.1693 53.4193 84.1677 53.3035 83.8035 52.893C83.5632 52.6223 83.275 52.4024 83.163 52.4042C83.0513 52.4059 82.8568 51.9619 82.731 51.4171C82.3983 49.9762 81.507 48.4549 81 48.4629C80.7586 48.4667 80.5585 48.3174 80.5555 48.1313C80.5526 47.945 80.1861 47.5165 79.7415 47.1794C79.2966 46.842 79.0071 46.4757 79.0981 46.3652C79.1891 46.2548 78.9649 45.985 78.5998 45.7658C78.2344 45.5469 77.9318 45.1279 77.9272 44.835C77.9221 44.5135 77.724 44.3055 77.4278 44.3102C77.158 44.3145 76.7952 44.0571 76.6218 43.7383C76.4483 43.4195 76.0494 43.1611 75.7352 43.1642C75.3121 43.1682 75.2714 43.1181 75.5782 42.9708C75.9083 42.8121 75.8728 42.6242 75.4025 42.0433C75.0777 41.6425 74.631 41.3168 74.4098 41.3193C74.1883 41.3222 74.0041 41.1139 74 40.8567C73.9959 40.5995 73.8767 40.391 73.7347 40.3932C73.5931 40.3955 73.1529 39.9289 72.7564 39.3564C72.3603 38.7839 71.8892 38.3178 71.7099 38.3206C71.5306 38.3235 71.3813 38.168 71.3782 37.9751C71.3751 37.7804 71.0865 37.629 70.7288 37.6346C70.3712 37.6403 70.0825 37.4889 70.0794 37.2942C70.0763 37.1013 69.929 36.9458 69.7519 36.9486C69.5749 36.9514 69.4276 36.8223 69.4247 36.6614C69.4165 36.225 67.4666 34.6928 67.4553 35.1142C67.4503 35.3072 67.2576 35.0998 67.0274 34.6532C66.7975 34.2067 66.2135 33.543 65.7301 33.1781C65.2468 32.8132 64.8501 32.425 64.8483 32.3151C64.8466 32.2052 64.6317 32.1188 64.3706 32.123C64.1096 32.1271 63.6825 31.8407 63.4216 31.4861C63.1606 31.1317 62.2764 30.4411 61.4568 29.9516C60.6373 29.462 59.9648 28.9477 59.9626 28.8086C59.9576 28.4901 58.0677 27.3125 57.5713 27.3185C57.3681 27.3208 56.9534 27.0154 56.6492 26.64C56.3454 26.2643 55.7236 25.8951 55.2677 25.8193C54.8118 25.7438 54.4371 25.5675 54.4349 25.4277C54.4284 25.0172 52.7286 23.8889 52.1308 23.8984C51.8289 23.9032 51.4958 23.7506 51.3906 23.5594C51.2859 23.3681 50.9589 23.2154 50.6643 23.2201C50.3694 23.2248 49.8897 23.0484 49.598 22.8278C48.8735 22.2804 47.7476 21.8633 47.0262 21.8747C46.6966 21.8799 46.1003 21.6855 45.7007 21.4425C45.3011 21.1998 44.784 21.0574 44.5516 21.1261C44.2946 21.2022 44.1451 21.0942 44.1708 20.8504C44.2351 20.2352 43.5576 20.2147 43.1348 20.8191C42.9276 21.1154 42.8199 21.1882 42.8949 20.9808C43.0127 20.6559 42.0954 19.8483 41.6173 19.8558C41.5272 19.8573 40.8461 19.5917 40.1042 19.2655C38.9855 18.7739 38.6508 18.7215 38.1483 18.9591C37.7137 19.1648 37.4231 19.1766 37.1212 19.0011C36.6704 18.7389 35.6555 18.9285 35.661 19.2738C35.6629 19.3886 35.533 19.4847 35.3727 19.4872C35.212 19.4898 35.1533 19.2803 35.2416 19.0216C35.3497 18.7063 35.2442 18.5539 34.9216 18.559C34.657 18.5632 34.2595 18.413 34.0382 18.2255C33.6861 17.9271 33.5356 17.9439 32.8306 18.3616C31.9521 18.8823 30.8268 19.0131 30.8202 18.5955C30.8172 18.4064 30.7 18.4055 30.4009 18.5924C30.1726 18.7349 29.6716 18.7971 29.2877 18.7305C28.3591 18.5694 27.4964 19.218 27.7883 19.8576C27.9204 20.1476 28.1879 20.2863 28.4597 20.2059C28.7113 20.1316 28.9139 20.2123 28.9166 20.3883C28.9221 20.7302 28.0475 20.9912 27.3943 20.8426C27.172 20.7921 26.988 20.6016 26.9851 20.4195C26.9784 19.9979 26.4564 19.9957 26.2429 20.4163C26.1535 20.5917 26.362 20.9041 26.706 21.1105C27.3883 21.5199 28.2919 21.6005 28.2863 21.2512C28.2821 20.9863 29.6553 20.9966 29.9201 21.2634C30.0235 21.3675 30.4528 21.4954 30.8745 21.5474C31.2962 21.5996 31.7669 21.8003 31.9203 21.9931C32.0741 22.1859 32.5997 22.3375 33.0884 22.3298C33.6527 22.3208 34.3634 22.5808 35.035 23.0419C35.7899 23.56 36.4105 23.7681 37.1997 23.7675C38.0298 23.7672 38.3084 23.8692 38.3139 24.1762C38.3208 24.5491 38.638 24.6743 39.1687 24.5134C39.2809 24.4793 39.49 24.6736 39.6334 24.9447C39.8336 25.3223 40.0887 25.4078 40.7228 25.3096C41.3366 25.2142 41.5524 25.2789 41.5569 25.5589C41.5602 25.767 41.7077 25.9347 41.8848 25.9319C42.0618 25.9291 42.2092 26.0846 42.2123 26.2775C42.2153 26.4704 42.373 26.6257 42.5626 26.6227C42.7525 26.6197 43.1369 26.7782 43.417 26.9749C43.7771 27.2278 44.0256 27.2583 44.2652 27.0784C44.7765 26.6944 45.158 26.7653 45.059 27.2262C45.0077 27.4653 45.1724 27.6336 45.4537 27.6292C45.7193 27.625 46.0253 27.8306 46.1337 28.0861C46.2417 28.3416 46.4983 28.5218 46.7035 28.4863C46.9084 28.451 47.0786 28.5615 47.0813 28.7319C47.084 28.9024 47.4389 29.2744 47.8701 29.5587C48.6016 30.0408 48.6642 30.0466 48.8001 29.6431C48.9016 29.3429 48.9605 29.4011 48.9934 29.8335C49.0264 30.2695 49.4529 30.6832 50.4154 31.214C52.4795 32.3517 52.9733 32.748 52.8792 33.1908C52.8229 33.4555 53.0414 33.6145 53.519 33.6563C53.9566 33.6942 54.2471 33.8821 54.251 34.1297C54.2548 34.3656 54.7731 34.7276 55.4721 34.9824C56.1399 35.2257 56.7078 35.5247 56.7336 35.6466C56.8997 36.4335 57.3939 36.9803 58.1272 37.1888C58.592 37.321 59.081 37.4103 59.2133 37.3874C59.3456 37.3647 59.4784 37.4769 59.5077 37.6374C59.5373 37.7975 59.5967 38.0335 59.64 38.1614C59.6832 38.2894 59.7382 38.5902 59.7626 38.83C59.7944 39.1461 59.9828 39.2294 60.4485 39.1331C60.9591 39.0278 61.0922 39.1159 61.0993 39.5634C61.1042 39.8727 61.2728 40.1233 61.4736 40.1201C61.9469 40.1126 63.2483 41.1027 63.8628 41.9374C64.1274 42.2964 64.5673 42.6488 64.8406 42.7203C65.1138 42.7919 65.3408 43.058 65.3449 43.3116C65.3489 43.5651 65.4644 43.8209 65.6012 43.8798C65.7383 43.9387 65.8043 43.5492 65.7478 43.0143C65.6564 42.1456 65.6862 42.0976 66.0279 42.5658C66.2916 42.9269 66.5939 43.0444 67.0006 42.9437C67.7226 42.7653 67.7618 43.006 67.1004 43.5541C66.6472 43.9299 66.6772 44.0159 67.4532 44.5609C67.9198 44.8886 68.1499 45.159 67.9648 45.162C67.525 45.1689 67.5377 45.8069 67.9795 45.9066C68.1669 45.9487 68.3665 46.1911 68.4227 46.4451C68.4869 46.7338 68.7739 46.903 69.1885 46.8965C70.1102 46.8818 70.4017 47.1518 69.9271 47.5807C69.6601 47.8221 69.6447 47.9416 69.8809 47.9378C70.076 47.9347 70.331 48.1938 70.4472 48.5135C70.5633 48.8332 70.8601 49.0916 71.1064 49.0877C71.3919 49.0831 71.5586 49.341 71.5659 49.7983C71.5769 50.4948 72.9282 52.1433 73.9974 52.765C74.2785 52.9285 74.4363 53.15 74.3482 53.2571C74.2597 53.3642 74.4837 53.8223 74.8454 54.2749C75.2071 54.7278 75.4294 55.0993 75.3393 55.1008C75.0057 55.1061 76.299 56.6164 76.8842 56.9045C77.2175 57.069 77.4045 57.3074 77.2999 57.4344C77.1951 57.5617 77.2525 57.7902 77.4271 57.9427C77.6018 58.0949 77.8541 58.6915 77.9875 59.2682C78.1213 59.8448 78.5861 60.7034 79.0202 61.1762C79.4547 61.6487 79.8136 62.2515 79.8178 62.5157C79.822 62.7796 80.0712 63.383 80.3717 63.8565C80.6723 64.33 80.8908 64.811 80.8572 64.9257C80.8236 65.0404 81.1037 65.3642 81.4795 65.6455C81.9741 66.0155 82.1082 66.324 81.9644 66.7621C81.8373 67.15 81.9535 67.5563 82.2876 67.8919C82.5746 68.1802 82.8167 68.8695 82.8255 69.4236C82.8359 70.0789 83.0022 70.4729 83.3016 70.5514C83.5545 70.6175 83.846 70.8255 83.9491 71.0135C84.0536 71.2036 83.9961 71.295 83.82 71.2192C83.6404 71.1421 83.5888 71.2388 83.7006 71.4428C83.8093 71.6408 84.1362 71.8073 84.4274 71.8127C84.7186 71.8182 84.8086 71.8703 84.6279 71.9283C84.238 72.0538 84.4486 73.8986 84.8523 73.8922C85.0052 73.8898 85.0452 74.055 84.9412 74.2596C84.7823 74.5725 85.0782 75.4272 86.1031 77.6141C86.3274 78.0927 86.473 78.8687 86.667 80.6182C86.7576 81.438 86.973 82.1713 87.1456 82.2476C87.4436 82.3796 87.5392 82.9667 87.7007 85.6568C87.7392 86.2993 87.9068 86.8934 88.073 86.9771C88.2392 87.0608 88.4207 87.5841 88.4762 88.14C88.5321 88.6959 88.5863 89.2133 88.5972 89.2894C88.6081 89.3657 88.9717 89.7184 89.4053 90.0731C90.0653 90.6131 90.1238 90.7702 89.7655 91.0392C89.5303 91.2158 89.191 91.3627 89.0117 91.3655C88.5517 91.3728 89.0077 94.6415 89.5455 95.1935C89.8568 95.5127 89.8835 95.7573 89.6441 96.0934C89.4551 96.3583 89.4192 96.916 89.5596 97.4032C89.6939 97.87 89.8903 100.829 89.9957 103.978C90.1014 107.128 90.2017 109.942 90.2189 110.233C90.2364 110.523 90.5787 110.991 90.9796 111.273L91.709 111.785L90.9482 111.876C90.2691 111.956 90.2089 112.055 90.3854 112.791C90.4944 113.244 90.8324 113.808 91.1369 114.045C91.6608 114.452 91.6557 114.475 91.0389 114.485C90.509 114.494 90.3806 114.66 90.352 115.373C90.2694 117.434 90.391 118.561 90.7266 118.845C90.9926 119.07 90.9586 119.243 90.5949 119.516C89.9871 119.973 89.9723 124.333 90.5777 124.603C90.8155 124.709 90.7466 124.774 90.3858 124.782C89.7819 124.795 89.6747 125.47 90.1431 126.309C90.3104 126.609 90.2506 126.857 89.9736 127.013C89.7384 127.146 89.4735 127.887 89.385 128.66C89.2965 129.433 89.1773 130.381 89.12 130.767C89.0627 131.153 89.1604 131.53 89.3371 131.606C89.5368 131.692 89.4991 131.871 89.2374 132.078C88.7445 132.467 88.5416 134.169 88.989 134.162C89.1568 134.159 89.0776 134.547 88.8131 135.025C88.5486 135.502 88.3893 136.281 88.4593 136.756C88.5513 137.38 88.4732 137.589 88.1776 137.512C87.8142 137.417 87.606 137.893 87.7578 138.472C87.7863 138.581 87.5794 139.321 87.298 140.116C87.0167 140.912 86.7568 142.09 86.7207 142.734C86.6845 143.377 86.563 144.116 86.4499 144.375C86.2874 144.748 86.4864 144.936 87.4103 145.279C88.3509 145.629 88.4794 145.754 88.0777 145.925C87.8039 146.041 87.4354 146.074 87.2584 145.998C87.0814 145.922 86.9388 145.984 86.9412 146.136C86.9445 146.344 86.8351 146.348 86.4977 146.152C86.1438 145.946 86.0107 146.003 85.8625 146.426C85.5714 147.255 85.6268 147.353 86.2926 147.189C86.817 147.059 86.9105 147.146 86.8966 147.748C86.883 148.334 86.7459 148.463 86.1243 148.473C85.0098 148.49 84.0379 149.316 84.2958 150.025C84.413 150.348 84.2924 151.006 84.0226 151.514C83.663 152.192 83.6336 152.491 83.9078 152.684C84.182 152.876 84.0971 153.068 83.5761 153.433C83.0437 153.805 82.9121 154.116 83.0267 154.727C83.1137 155.193 83.0192 155.609 82.8022 155.715C82.5958 155.815 82.2504 156.269 82.0341 156.722C81.7029 157.418 81.7165 157.586 82.1207 157.793C82.4852 157.981 82.5111 158.106 82.2288 158.318C82.0248 158.471 81.6859 158.599 81.475 158.602C80.9258 158.611 79.7831 160.561 79.5676 161.858C79.4668 162.465 79.1918 163.172 78.9566 163.43C78.7214 163.687 78.5314 164.052 78.5344 164.24C78.5374 164.428 78.223 165.067 77.8357 165.66C77.3884 166.345 77.1371 167.174 77.1472 167.93C77.1591 168.842 77.0495 169.118 76.6797 169.107C76.382 169.098 76.1611 169.34 76.1049 169.737C76.0545 170.092 75.8936 170.384 75.7475 170.386C75.384 170.392 74.4741 172.159 74.4849 172.838C74.4897 173.141 74.2784 173.523 74.0153 173.687C73.4937 174.013 73.3704 174.867 73.8462 174.859C74.0085 174.857 74.2121 174.722 74.299 174.56C74.396 174.379 74.469 174.417 74.4884 174.661C74.5057 174.878 74.0856 175.251 73.5545 175.489C73.0234 175.727 72.6619 176.054 72.751 176.216C72.8399 176.378 72.787 176.513 72.6331 176.516C72.4789 176.518 72.3743 176.907 72.4002 177.38C72.4269 177.863 72.278 178.285 72.0616 178.341C71.8496 178.396 71.6779 178.577 71.6806 178.743C71.6832 178.91 71.4702 179.18 71.2071 179.345C70.9441 179.509 70.732 179.841 70.7358 180.082C70.7396 180.324 70.4424 180.747 70.0752 181.023C69.6449 181.346 69.4625 181.72 69.5622 182.075C69.6472 182.378 69.5572 182.677 69.3628 182.739C69.1257 182.814 69.1548 182.923 69.4511 183.068C69.8246 183.251 69.8255 183.308 69.4569 183.437C69.1216 183.554 69.1133 183.619 69.4221 183.718C69.7309 183.817 69.7168 183.928 69.363 184.193C69.1094 184.384 68.9846 184.719 69.086 184.939C69.2271 185.245 69.1958 185.266 68.9528 185.026C68.6859 184.764 68.5922 184.765 68.3592 185.036C68.2071 185.213 68.0702 185.516 68.0552 185.709C68.0403 185.902 68.0093 186.245 67.9868 186.47C67.9643 186.695 67.7284 186.883 67.4628 186.888C67.1267 186.893 66.9838 187.141 66.9927 187.702C67.0005 188.19 66.8082 188.592 66.5056 188.721C66.2309 188.838 65.9748 189.1 65.9372 189.303C65.8995 189.506 65.6845 189.838 65.4598 190.042C65.2347 190.245 65.1413 190.61 65.2524 190.854C65.3715 191.115 65.2553 191.421 64.969 191.6C64.7018 191.767 64.4851 192.074 64.4872 192.284C64.4895 192.493 64.2085 192.984 63.8627 193.376C63.517 193.767 63.2362 194.272 63.2388 194.496C63.2411 194.721 63.1291 194.907 62.99 194.91C62.7376 194.914 62.6156 195.463 62.6287 196.533C62.6324 196.844 62.4066 197.288 62.1269 197.52C61.8469 197.752 61.6984 198.033 61.7965 198.145C61.8949 198.257 61.6955 198.5 61.3536 198.686C61.012 198.872 60.7343 199.146 60.7367 199.295C60.739 199.444 60.5257 199.7 60.2627 199.864C59.646 200.249 59.6549 200.809 60.2775 200.799C60.5431 200.795 60.7587 200.686 60.7567 200.558C60.7547 200.429 60.8843 200.322 61.0447 200.319C61.205 200.317 61.1746 200.572 60.977 200.887C60.7107 201.312 60.5112 201.398 60.2076 201.222C59.982 201.091 59.7841 201.075 59.7675 201.188C59.751 201.3 59.6976 201.793 59.649 202.283C59.5536 203.249 59.0561 203.859 58.355 203.87C58.111 203.874 57.9131 203.986 57.9152 204.119C57.9173 204.252 57.6752 204.64 57.3773 204.981C57.0791 205.322 56.8059 205.759 56.77 205.953C56.7341 206.146 56.5302 206.386 56.3173 206.486C56.1041 206.586 56.0221 206.835 56.1345 207.041C56.2622 207.273 56.1017 207.526 55.7092 207.712C55.3624 207.876 55.0817 208.184 55.0851 208.396C55.0885 208.613 54.7394 208.852 54.2887 208.941C53.8474 209.029 53.4888 209.264 53.492 209.464C53.4971 209.786 53.4434 209.789 53.0093 209.484C52.7407 209.295 52.5191 209.028 52.5169 208.89C52.5147 208.752 52.3642 208.642 52.1826 208.645C51.9949 208.648 52.0638 208.344 52.3424 207.939C52.6943 207.428 52.74 207.106 52.5049 206.797C52.3247 206.561 52.2757 206.294 52.3957 206.204C52.5156 206.114 52.4035 205.95 52.1461 205.839C51.7402 205.664 51.7408 205.62 52.1501 205.499C52.5456 205.382 52.5872 204.822 52.408 202.033C52.2904 200.203 52.0648 198.564 51.9065 198.392C51.7214 198.19 51.7757 198.003 52.0592 197.867C52.4101 197.699 52.4133 197.657 52.0742 197.659C51.8402 197.661 51.4581 197.528 51.2253 197.365C50.8782 197.121 50.9016 196.975 51.356 196.555C51.8016 196.142 51.8545 195.846 51.6263 195.042C51.4708 194.492 51.3358 193.963 51.3266 193.867C51.3173 193.771 51.0923 193.695 50.8267 193.7C50.5612 193.704 50.3421 193.599 50.34 193.466C50.3379 193.333 50.5525 193.161 50.817 193.083C51.3878 192.914 51.4334 192.484 50.9189 192.123C50.4881 191.82 49.6098 192.337 49.7082 192.835C49.8448 193.526 49.6596 193.749 48.9755 193.72C47.2923 193.648 46.8174 193.753 47.0359 194.151C47.1974 194.445 47.1178 194.505 46.7078 194.398C46.3848 194.313 46.1664 194.371 46.1665 194.541C46.1668 194.698 46.0831 195.064 45.9811 195.355C45.8443 195.744 45.9331 195.882 46.3156 195.876C46.9089 195.866 46.982 196.172 46.5366 196.797C46.2934 197.139 46.3622 197.252 46.8672 197.34C47.2182 197.4 47.5072 197.572 47.5096 197.722C47.5122 197.886 47.2606 197.939 46.8696 197.855C46.3623 197.747 46.2704 197.8 46.4376 198.104C46.5543 198.316 46.4708 198.574 46.2525 198.676C46.0342 198.778 45.8368 199.244 45.8139 199.712C45.7811 200.383 45.8918 200.56 46.3415 200.553C47.118 200.54 47.0734 201.159 46.2858 201.322C45.7109 201.44 45.6663 201.612 45.8112 203.151C45.92 204.305 45.8323 205.051 45.538 205.479C45.1698 206.014 45.1731 206.201 45.5594 206.724C45.8095 207.063 45.9028 207.341 45.767 207.344C45.6311 207.346 45.5888 207.662 45.6728 208.047C45.7569 208.431 46.011 208.743 46.2377 208.739C46.8538 208.73 47.0836 209.368 46.5233 209.534C45.8372 209.737 45.7006 209.718 45.9224 209.448C46.0352 209.312 45.8975 209.279 45.5911 209.369C45.1709 209.494 45.1527 209.563 45.4994 209.719C45.8536 209.878 45.8452 209.957 45.4529 210.155C45.0555 210.355 45.0489 210.43 45.4138 210.594C45.7102 210.727 45.7417 210.844 45.5103 210.952C45.3214 211.041 45.1846 211.451 45.2069 211.863C45.2289 212.276 45.2141 212.719 45.174 212.849C45.0226 213.337 45.1988 213.481 45.6222 213.217C45.9739 212.997 46.0624 213.056 46.0697 213.512C46.0754 213.872 45.8576 214.127 45.4769 214.205C44.6489 214.376 44.7272 214.789 45.6087 214.898L46.3346 214.988L45.6108 215.032C44.627 215.09 44.5678 216.249 45.5494 216.234C45.9035 216.228 46.1947 216.319 46.1966 216.435C46.1984 216.552 45.9355 216.601 45.6123 216.545C44.9003 216.422 44.1797 217.011 44.3385 217.586C44.4021 217.817 44.7795 218.103 45.1772 218.223C45.5748 218.344 45.8862 218.549 45.869 218.68C45.79 219.282 45.9907 219.452 46.921 219.572C47.7128 219.674 48.0386 219.591 48.4962 219.167C49.0144 218.688 49.1772 218.66 50.0919 218.895C50.9953 219.127 51.1887 219.097 51.8019 218.637C52.1821 218.351 52.7855 218.143 53.1427 218.173C53.6273 218.214 53.6802 218.176 53.3519 218.02C53.0446 217.875 53.0183 217.762 53.2654 217.647C53.4601 217.556 53.6162 217.288 53.6124 217.052C53.6046 216.559 54.2109 216.33 55.5781 216.308C56.105 216.3 56.4616 216.208 56.3698 216.104C56.1836 215.892 57.2766 215.112 57.7711 215.104C57.9462 215.101 58.0872 214.956 58.0844 214.781C58.0811 214.568 58.3446 214.495 58.8766 214.56C59.4873 214.635 59.8805 214.473 60.5561 213.868C62.215 212.382 63.1976 211.721 63.5312 211.864C63.9825 212.058 65.4355 211.314 65.4288 210.892C65.4255 210.688 65.6152 210.604 65.9084 210.681C66.2308 210.765 66.3947 210.662 66.3969 210.374C66.402 209.686 67.1676 209.109 68.0951 209.094C68.869 209.082 68.9095 209.038 68.5351 208.616C68.1728 208.208 68.2387 208.078 69.079 207.543C69.6047 207.208 70.5035 206.773 71.0758 206.576C72.2435 206.174 72.3777 205.883 71.5453 205.561C70.7291 205.244 71.3003 204.955 72.7352 204.96C73.6871 204.963 73.9339 204.887 73.7946 204.633C73.6812 204.426 73.8703 204.248 74.2962 204.16C74.6723 204.082 74.9776 203.883 74.975 203.718C74.9719 203.523 74.715 203.466 74.2479 203.556L73.5257 203.697L74.2804 203.19C75.3092 202.499 76.2507 202.295 76.6368 202.678C76.8671 202.906 76.9085 202.855 76.7908 202.484C76.6756 202.121 76.7573 202.011 77.0787 202.095C77.3254 202.16 77.5252 202.088 77.5227 201.935C77.5203 201.783 78.0987 201.239 78.808 200.727C79.5173 200.216 80.0708 199.663 80.0382 199.499C79.8229 198.413 80.0357 198.147 81.1351 198.13C82.0571 198.115 82.205 198.041 82.0635 197.667C81.9489 197.364 82.1625 197.089 82.7341 196.806C83.1954 196.577 83.6538 196.447 83.7528 196.517C83.9795 196.676 84.9756 195.937 85.5109 195.213C85.9147 194.666 85.9817 194.526 86.0518 194.076C86.072 193.947 86.3781 193.837 86.7322 193.831C87.0986 193.825 87.3736 193.665 87.3703 193.459C87.3672 193.261 87.7954 192.912 88.3221 192.684C89.4904 192.18 89.5439 191.781 88.4679 191.603C88.0239 191.529 87.6581 191.306 87.655 191.107C87.6509 190.852 87.8392 190.786 88.2935 190.883C88.7736 190.986 88.89 190.934 88.7511 190.68C88.4467 190.126 87.3373 190.062 86.9111 190.574C86.7031 190.824 86.3262 191.031 86.0738 191.035C85.8211 191.039 85.7095 191.109 85.8254 191.191C86.0595 191.355 83.8521 192.691 83.3147 192.71C82.9684 192.722 81.9097 194.309 81.9176 194.805C81.92 194.954 82.1569 195.073 82.4441 195.069C82.8719 195.062 82.8951 195.125 82.5713 195.417C82.3539 195.614 81.9405 195.78 81.6524 195.786C81.2043 195.796 81.1974 195.829 81.6054 196.008C81.8677 196.124 81.9713 196.302 81.8358 196.404C81.5293 196.633 80.9457 196.013 81.1895 195.717C81.3541 195.517 80.7365 195.107 80.2696 195.107C80.1572 195.107 79.9934 195.317 79.9051 195.575C79.8168 195.833 79.4784 196.123 79.1531 196.219C78.2339 196.49 77.4327 197.319 77.5634 197.862C77.6547 198.242 77.547 198.331 77.0891 198.251C76.7633 198.195 76.4951 198.053 76.4933 197.937C76.4914 197.82 76.1218 197.907 75.672 198.13C75.1659 198.381 74.9893 198.593 75.2088 198.688C75.8585 198.967 75.1956 199.599 74.1592 199.689C73.236 199.768 73.1334 199.858 73.0552 200.656C72.976 201.467 72.9175 201.515 72.2921 201.283C71.7084 201.067 71.6453 201.088 71.8356 201.435C72.0044 201.743 71.9199 201.814 71.4772 201.737C70.7633 201.613 69.9992 202.182 70.2548 202.648C70.3775 202.872 70.1563 203.075 69.6211 203.232C68.5894 203.535 68.0336 203.331 68.5697 202.847C68.7875 202.65 68.9813 202.156 69.0002 201.75C69.0562 200.551 69.1064 200.425 69.5313 200.418C69.9196 200.412 70.7126 198.904 70.7013 198.193C70.6983 198.005 70.9047 197.762 71.1596 197.654C71.4286 197.539 71.6717 196.987 71.7377 196.34C71.8004 195.727 71.9386 195.159 72.0445 195.08C72.1502 195 72.1006 194.756 71.9338 194.538C71.6783 194.202 71.7545 194.155 72.4233 194.237C72.9015 194.296 73.2143 194.225 73.2117 194.059C73.2093 193.908 73.0635 193.852 72.8877 193.934C72.0416 194.33 72.679 193.401 74.0005 192.312C74.3886 191.992 75.0652 190.311 75.0086 189.808C74.8792 188.657 75.0829 187.936 75.5394 187.929C75.8108 187.924 76.1195 187.735 76.2257 187.508C76.3322 187.282 76.5985 186.935 76.8179 186.739C77.0369 186.543 77.2583 186.066 77.3095 185.679C77.3607 185.292 77.6585 184.62 77.9713 184.184C78.2841 183.749 78.4495 183.194 78.3388 182.951C78.2263 182.705 78.2892 182.506 78.4807 182.503C78.6697 182.5 78.8201 182.235 78.815 181.913C78.8099 181.592 78.9592 181.326 79.1466 181.323C79.334 181.32 79.3957 181.213 79.2835 181.086C79.1714 180.958 79.3735 180.544 79.7329 180.166C80.0924 179.787 80.3845 179.362 80.3823 179.221C80.38 179.08 80.523 178.963 80.7001 178.96C80.8772 178.957 81.0182 178.713 81.0135 178.417C81.0088 178.122 81.1325 177.777 81.2886 177.653C81.4444 177.528 81.9283 176.53 82.364 175.435C82.992 173.857 83.0748 173.374 82.7643 173.104C82.4521 172.833 82.46 172.8 82.8029 172.943C83.3122 173.156 84.4145 172.372 84.209 171.942C84.1344 171.786 84.3691 171.298 84.7308 170.859C85.0929 170.42 85.3843 169.769 85.3786 169.413C85.373 169.056 85.5812 168.645 85.841 168.498C86.1011 168.351 86.3637 168.019 86.425 167.761C86.4863 167.503 86.6153 167.132 86.7117 166.938C87.3033 165.745 87.4928 165.027 87.3295 164.595C87.2122 164.285 87.3428 163.993 87.6827 163.806C87.9809 163.642 88.2297 163.172 88.2396 162.755C88.2491 162.341 88.3953 162 88.5643 161.998C88.7334 161.995 88.7922 161.848 88.6947 161.67C88.5976 161.493 88.8092 161.113 89.1653 160.827C89.6288 160.453 89.7581 160.118 89.6199 159.645C89.4912 159.206 89.572 158.943 89.863 158.857C90.1031 158.786 90.5272 157.954 90.8055 157.008C91.0835 156.063 91.5221 155.046 91.7798 154.749C92.0375 154.452 92.1707 154.12 92.0759 154.012C91.9811 153.905 92.1211 153.489 92.3871 153.088C92.8607 152.374 92.8315 151.039 92.3237 150.187C92.1298 149.861 92.2473 149.778 92.9214 149.768C93.4529 149.759 93.7586 149.626 93.7551 149.404C93.752 149.211 93.8709 149.051 94.0193 149.049C94.1677 149.046 94.3027 148.664 94.3194 148.198C94.3362 147.733 94.5054 147.212 94.6958 147.04C95.092 146.682 95.3783 145.485 95.3064 144.486C95.2795 144.111 95.4234 143.726 95.6261 143.631C95.8291 143.536 96.05 142.893 96.1173 142.202C96.2956 140.371 96.2834 140.068 96.007 139.474C95.811 139.052 95.8928 138.91 96.3906 138.807C97.0389 138.673 97.0435 138.656 97.2369 135.668C97.315 134.459 97.4735 133.876 97.7888 133.639C97.9107 133.548 98.0026 132.986 97.9931 132.39C97.9836 131.794 98.1108 131.204 98.2759 131.079C98.5222 130.893 98.632 129.408 98.5428 127.462C98.5339 127.269 98.6752 126.636 98.8566 126.054C99.3469 124.483 99.4302 123.159 99.0593 122.838C98.8752 122.679 98.8413 122.371 98.9825 122.138C99.3189 121.581 99.3591 117.159 99.0279 117.165C98.8843 117.167 98.9633 116.873 99.2036 116.511C99.4737 116.104 99.6 115.276 99.535 114.342C99.4258 112.779 99.1314 112.148 98.6229 112.385C98.4615 112.461 98.4129 112.358 98.515 112.157C98.6174 111.956 98.8482 111.789 99.0278 111.786C99.2165 111.783 99.1829 111.635 98.9485 111.436C98.6185 111.157 98.6317 111.091 99.0199 111.085C99.4123 111.078 99.472 110.737 99.3544 109.172C99.2756 108.124 99.1414 107.218 99.0564 107.158C98.9711 107.098 99.0137 106.877 99.1504 106.667C99.2871 106.456 99.3014 105.914 99.1818 105.461ZM92.5362 188.653C92.4545 188.493 91.9291 188.382 91.3689 188.406C90.6838 188.435 90.5616 188.484 90.9955 188.554C91.3506 188.612 91.8274 188.765 92.0551 188.894C92.5386 189.169 92.7469 189.064 92.5362 188.653ZM90.7771 124.078C90.6 124.08 90.4534 123.971 90.4512 123.835C90.4491 123.699 90.5932 123.65 90.7715 123.727C90.9498 123.804 91.0965 123.913 91.0974 123.969C91.0983 124.026 90.9541 124.075 90.7771 124.078ZM90.9452 189.789C90.3149 189.799 89.573 190.224 89.5785 190.573C89.5803 190.683 89.7613 190.688 89.9812 190.584C90.2008 190.48 90.5854 190.389 90.8358 190.381C91.5339 190.361 91.6415 189.778 90.9452 189.789ZM88.6408 82.8891C88.5327 82.8132 88.5179 82.6116 88.6083 82.4416C88.708 82.2534 88.7852 82.3076 88.805 82.5797C88.8227 82.8259 88.7489 82.9651 88.6408 82.8891ZM89.8791 189.221C89.7007 189.144 89.5575 189.246 89.5606 189.446C89.5638 189.647 89.7113 189.808 89.8883 189.806C90.0654 189.803 90.2087 189.702 90.2068 189.58C90.2049 189.459 90.0574 189.298 89.8791 189.221ZM87.1446 79.0007C86.9778 79.0034 86.84 78.9003 86.8379 78.7717C86.8359 78.6431 87.0602 78.5343 87.3361 78.53C87.612 78.5256 87.7502 78.6286 87.6427 78.7589C87.5353 78.8893 87.3113 78.9981 87.1446 79.0007ZM86.8323 67.0789C86.7541 67.0802 86.5992 66.9774 86.4877 66.8505C86.3762 66.7237 86.4386 66.6175 86.626 66.6145C86.8133 66.6115 86.9686 66.7143 86.9706 66.8429C86.9726 66.9715 86.9106 67.0777 86.8323 67.0789ZM83.6659 66.5824C83.4434 66.5212 83.6238 66.4652 84.0665 66.4582C84.5091 66.4512 84.6909 66.5014 84.4707 66.5697C84.2503 66.6382 83.8881 66.6439 83.6659 66.5824ZM81.1278 63.8955C80.9507 63.8983 80.8052 63.7163 80.8042 63.4914C80.8028 63.1415 80.849 63.1324 81.1203 63.4279C81.5201 63.8628 81.5205 63.8892 81.1278 63.8955ZM80.4723 170.107C79.9428 169.735 80.4294 169.51 80.986 169.87C81.2489 170.04 81.321 170.219 81.1463 170.268C80.9719 170.318 80.6687 170.245 80.4723 170.107ZM79.1276 59.6009C78.9518 59.6832 78.8062 59.6389 78.804 59.5029C78.8018 59.3668 78.9449 59.253 79.122 59.2502C79.2991 59.2474 79.4447 59.2913 79.4456 59.3482C79.4465 59.405 79.3034 59.5186 79.1276 59.6009ZM78.8971 197.23C78.6315 197.234 78.4125 197.132 78.4105 197.003C78.4084 196.875 78.6241 196.766 78.8896 196.762C79.1552 196.758 79.3742 196.86 79.3762 196.988C79.3783 197.117 79.1627 197.225 78.8971 197.23ZM67.2731 205.365C67.096 205.368 66.9504 205.324 66.9495 205.267C66.9486 205.21 67.0917 205.097 67.2675 205.015C67.4433 204.932 67.5889 204.976 67.5911 205.113C67.5932 205.249 67.4501 205.362 67.2731 205.365ZM50.9975 204.454C50.7319 204.459 50.5129 204.357 50.5109 204.228C50.5088 204.1 50.7244 203.991 50.99 203.987C51.2556 203.982 51.4746 204.084 51.4766 204.213C51.4787 204.341 51.263 204.45 50.9975 204.454ZM47.5448 26.3098C47.4666 26.311 47.3117 26.2082 47.2002 26.0814C47.0887 25.9545 47.1511 25.8483 47.3384 25.8453C47.5258 25.8424 47.681 25.9451 47.6831 26.0737C47.6851 26.2023 47.6231 26.3085 47.5448 26.3098ZM50.0539 205.872C49.7884 205.877 49.5694 205.775 49.5674 205.646C49.5653 205.518 49.3222 205.416 49.027 205.421C48.7321 205.426 48.5795 205.363 48.688 205.281C48.9744 205.066 50.5289 205.365 50.5332 205.635C50.5352 205.762 50.3195 205.868 50.0539 205.872ZM48.4796 197.488C48.0723 197.024 48.4004 196.721 48.9382 197.064C49.2228 197.246 49.2724 197.432 49.0771 197.584C48.8771 197.74 48.6717 197.706 48.4796 197.488ZM49.0285 199.55C48.5665 199.839 47.5409 199.694 47.5352 199.339C47.5334 199.225 47.7492 199.127 48.0148 199.123C48.2804 199.119 48.495 198.945 48.4917 198.736C48.4867 198.425 48.5737 198.408 48.9731 198.64C49.5773 198.991 49.59 199.199 49.0285 199.55ZM48.9827 214.805C48.6636 214.579 48.7002 214.552 49.161 214.671C49.4798 214.754 49.6605 214.882 49.5625 214.956C49.4648 215.029 49.2039 214.961 48.9827 214.805ZM48.193 195.138C47.4335 195.143 47.3876 195.109 47.8698 194.896C48.179 194.759 48.5765 194.71 48.7535 194.786C49.296 195.019 49.119 195.13 48.193 195.138ZM47.5686 202.638C47.2042 202.644 46.9936 202.542 47.101 202.411C47.2084 202.281 47.5048 202.171 47.7601 202.167C48.0154 202.163 48.2257 202.265 48.2277 202.394C48.2297 202.522 47.933 202.632 47.5686 202.638ZM47.1901 208.023C46.9245 208.027 46.7047 207.876 46.7017 207.687C46.6984 207.478 46.8857 207.393 47.1813 207.47C47.448 207.54 47.6678 207.691 47.6696 207.806C47.6714 207.921 47.4556 208.018 47.1901 208.023ZM42.6224 22.1738C42.35 22.0153 42.1927 21.8366 42.2725 21.7764C42.4934 21.6108 43.1093 21.9306 43.1138 22.213C43.1162 22.3682 42.9312 22.3534 42.6224 22.1738ZM40.1072 24.3231C40.029 24.3243 39.8741 24.2216 39.7626 24.0947C39.6511 23.9679 39.7135 23.8616 39.9008 23.8587C40.0882 23.8557 40.2434 23.9585 40.2455 24.087C40.2475 24.2156 40.1854 24.3219 40.1072 24.3231Z" fill="#FFE485"/>
</g>
<defs>
<filter id="filter0_d_861_11008" x="0.222168" y="0.0219116" width="157.33" height="285.59" filterUnits="userSpaceOnUse" color-interpolation-filters="sRGB">
<feFlood flood-opacity="0" result="BackgroundImageFix"/>
<feColorMatrix in="SourceAlpha" type="matrix" values="0 0 0 0 0 0 0 0 0 0 0 0 0 0 0 0 0 0 127 0" result="hardAlpha"/>
<feOffset dx="16" dy="24"/>
<feGaussianBlur stdDeviation="21"/>
<feComposite in2="hardAlpha" operator="out"/>
<feColorMatrix type="matrix" values="0 0 0 0 0 0 0 0 0 0 0 0 0 0 0 0 0 0 0.02 0"/>
<feBlend mode="normal" in2="BackgroundImageFix" result="effect1_dropShadow_861_11008"/>
<feBlend mode="normal" in="SourceGraphic" in2="effect1_dropShadow_861_11008" result="shape"/>
</filter>
</defs>
</svg>
